<svg width="19" height="16" viewBox="0 0 19 16" fill="none" xmlns="http://www.w3.org/2000/svg">
<path d="M11.2722 0H1.60016C0.714702 0 0 0.71469 0 1.60013V8.00066C0 8.88603 0.714702 9.60079 1.60016 9.60079H2.13354V11.2009C2.13354 11.5863 2.53255 11.8653 2.92296 11.6703C2.93362 11.6596 2.95499 11.6596 2.96566 11.6489C5.89985 9.68129 5.24226 10.12 5.89929 9.68609C5.98459 9.63275 6.0806 9.60079 6.18728 9.60079H11.2722C12.1577 9.60079 12.8724 8.88603 12.8724 8.00066V1.60013C12.8724 0.71469 12.1577 0 11.2722 0ZM7.00514 6.40052H2.66693C1.96382 6.40052 1.96094 5.33377 2.66693 5.33377H7.00514C7.70825 5.33377 7.71113 6.40052 7.00514 6.40052ZM10.2055 4.26702H2.66693C1.96382 4.26702 1.96094 3.20026 2.66693 3.20026H10.2055C10.9086 3.20026 10.9114 4.26702 10.2055 4.26702Z" fill="#D3224D"/>
<path d="M16.606 4.26758H13.9391V8.00122C13.9391 9.47334 12.7443 10.6681 11.2722 10.6681H6.34723L5.3338 11.3402V12.2682C5.3338 13.1536 6.0485 13.8684 6.93396 13.8684H12.1789L15.2405 15.9165C15.6584 16.1485 16.0726 15.8664 16.0726 15.4685V13.8684H16.606C17.4915 13.8684 18.2062 13.1536 18.2062 12.2682V5.86771C18.2062 4.9823 17.4915 4.26758 16.606 4.26758Z" fill="#D3224D"/>
</svg>
